<svg width="40" height="40" viewBox="0 0 40 40" fill="none" xmlns="http://www.w3.org/2000/svg">
<path d="M39.9967 12.5022V10.6217C39.9967 8.64139 38.9549 6.90077 37.3914 5.91603C39.1878 3.53791 37.4423 0.032798 34.4383 0.0486381C32.5877 0.0486381 31.0526 1.4229 30.7983 3.20441C13.7312 -7.54673 -6.68516 10.7217 2.11702 28.8861C1.72593 29.9861 1.95581 31.3456 2.65074 32.2434C1.08726 33.2281 0.0453991 34.9687 0.0453991 36.9491V38.8296C0.0453991 39.476 0.569449 40 1.21585 40H9.99166C10.6381 40 11.1621 39.476 11.1621 38.8296V37.9292C16.6147 40.681 23.4281 40.681 28.8801 37.9294V38.8296C28.8801 39.476 29.4041 40 30.0505 40H38.8263C39.4727 40 39.9968 39.476 39.9968 38.8296V36.9491C39.9968 34.9687 38.955 33.2281 37.3914 32.2434C38.0864 31.3458 38.3163 29.9858 37.9251 28.8859C40.2535 24.2334 40.642 18.5851 38.9602 13.6644C39.5435 13.5979 39.9967 13.1033 39.9967 12.5022ZM34.4384 2.38954C35.1755 2.38954 35.7754 2.98928 35.7754 3.72643C35.7019 5.49997 33.1747 5.49958 33.1015 3.72643C33.1015 2.98928 33.7012 2.38954 34.4384 2.38954ZM8.82113 37.6591H2.38622V36.9491C2.56343 32.6796 8.64548 32.6829 8.82113 36.9491V37.6591ZM4.26675 30.0539C4.26675 29.3167 4.86656 28.717 5.60371 28.717C7.37726 28.7904 7.37671 31.3176 5.60371 31.3908C4.86656 31.3907 4.26675 30.791 4.26675 30.0539ZM29.2049 35.078C23.7182 38.5061 16.3247 38.5058 10.8371 35.078C10.4139 33.8977 9.60205 32.9017 8.5566 32.2434C10.8819 29.016 7.24617 24.9284 3.76743 26.8692C-1.0169 15.8962 7.00076 3.05748 18.8506 2.42801V20.0244C18.8506 20.3349 18.9739 20.6325 19.1934 20.8521L30.9599 32.6182C30.1683 33.2553 29.5543 34.1039 29.2049 35.078ZM37.6558 36.9491V37.6591H31.2209V36.9491C31.3982 32.6796 37.4802 32.6829 37.6558 36.9491ZM33.1015 30.0539C33.1015 29.3167 33.7012 28.717 34.4384 28.717C36.212 28.7904 36.2115 31.3176 34.4384 31.3908C33.7012 31.3907 33.1015 30.791 33.1015 30.0539ZM36.2737 26.8687C34.1741 25.6186 31.3814 26.8648 30.8599 29.2078L22.8468 21.1948H37.6167C37.4863 23.1483 37.0296 25.0718 36.2737 26.8687ZM21.1915 18.8539V2.42785C24.7936 2.66428 28.2029 3.989 31.0161 6.23993C29.6934 7.27251 28.88 8.87415 28.88 10.6218V12.5023C28.88 13.1487 29.4041 13.6728 30.0505 13.6728H36.4759C37.1193 15.334 37.5018 17.0699 37.618 18.854H21.1915V18.8539ZM37.6558 11.3318H31.2209V10.6217C31.3981 6.3523 37.4802 6.35557 37.6558 10.6217V11.3318Z" fill="#8490A4"/>
</svg>
