<svg width="40" height="40" viewBox="0 0 40 40" fill="none" xmlns="http://www.w3.org/2000/svg">
<path d="M34.1383 5.85912C30.3895 2.11048 25.4145 0.0343126 20.1177 0.00337865C20.0971 0.00267561 20.0766 0.00228502 20.056 0.00259749C9.02742 -0.0406007 0 8.88847 0 19.9996C0 31.0516 8.94391 39.9974 19.9977 39.9974C25.3258 39.9974 30.3542 37.9241 34.1383 34.1402C41.9533 26.325 41.9544 13.6753 34.1383 5.85912ZM21.1695 36.6103V29.4471C22.9911 29.5663 24.7623 29.9631 26.4322 30.6165C25.0765 32.8903 23.2962 34.9347 21.1695 36.6103ZM21.1695 27.0994V21.1714H29.38C29.2285 23.715 28.5875 26.2093 27.5275 28.5283C25.5186 27.712 23.3756 27.2268 21.1695 27.0994ZM21.1695 18.8279V12.8998C23.3756 12.7725 25.5186 12.2873 27.5276 11.4709C28.5875 13.7899 29.2285 16.2843 29.3801 18.8279H21.1695ZM21.1695 10.5523V3.38901C23.2962 5.0646 25.0765 7.10906 26.4322 9.38286C24.7623 10.0362 22.9911 10.4331 21.1695 10.5523ZM24.1169 2.83181C26.8134 3.47877 29.2708 4.74597 31.3299 6.4739C30.4622 7.20217 29.5343 7.83976 28.5586 8.38212C27.3686 6.34204 25.8731 4.46514 24.1169 2.83181ZM18.826 3.51384V10.5523C17.0506 10.4361 15.3231 10.0566 13.6908 9.4327C15.0167 7.19514 16.7533 5.17818 18.826 3.51384ZM11.5554 8.44711C10.5364 7.89084 9.56845 7.23162 8.66558 6.4739C10.778 4.70128 13.3096 3.41299 16.0885 2.78236C14.2906 4.44452 12.7635 6.3611 11.5554 8.44711ZM18.826 12.8999V18.828H10.7722C10.9227 16.3036 11.5552 13.8278 12.6008 11.5237C14.5714 12.308 16.6683 12.7753 18.826 12.8999ZM18.826 21.1714V27.0994C16.6683 27.224 14.5714 27.6913 12.6009 28.4756C11.5553 26.1716 10.9228 23.6957 10.7723 21.1714H18.826ZM18.826 29.4471V36.4855C16.7533 34.8212 15.0167 32.8042 13.6908 30.5666C15.3231 29.9427 17.0506 29.5632 18.826 29.4471ZM16.0885 37.217C13.3096 36.5863 10.778 35.2981 8.66558 33.5254C9.56845 32.7677 10.5364 32.1085 11.5554 31.5522C12.7635 33.6382 14.2906 35.5548 16.0885 37.217ZM28.5587 31.6172C29.5343 32.1595 30.4622 32.7971 31.33 33.5254C29.2709 35.2534 26.8134 36.5206 24.117 37.1675C25.8731 35.5342 27.3686 33.6573 28.5587 31.6172ZM29.6406 29.5362C30.8492 26.9042 31.5725 24.0658 31.7273 21.1714H37.6121C37.3409 25.2892 35.6525 29.0259 33.03 31.8963C31.975 30.9878 30.8399 30.1979 29.6406 29.5362ZM37.6121 18.8279H31.7273C31.5726 15.9334 30.8492 13.0951 29.6406 10.4631C30.8399 9.80133 31.975 9.0115 33.03 8.10293C35.6525 10.9735 37.341 14.7101 37.6121 18.8279ZM6.96546 8.10293C8.05729 9.04321 9.23552 9.85523 10.4811 10.5308C9.29114 13.1438 8.57848 15.9582 8.42514 18.8279H2.38332C2.65447 14.7101 4.34295 10.9735 6.96546 8.10293ZM2.38332 21.1714H8.42514C8.57848 24.041 9.29114 26.8554 10.4811 29.4685C9.23552 30.144 8.05729 30.956 6.96546 31.8963C4.34295 29.0259 2.65447 25.2892 2.38332 21.1714Z" fill="#8490A4"/>
</svg>
