<svg width="36" height="38" viewBox="0 0 36 38" fill="none" xmlns="http://www.w3.org/2000/svg">
<path d="M17.1439 0.621582C11.3246 0.621582 6.57747 5.38494 6.57747 11.2042C6.57747 14.7615 8.35748 17.9133 11.0664 19.8305C4.74797 22.3622 0.265625 28.54 0.265625 35.7484C0.275293 36.184 0.455134 36.5985 0.766641 36.9032C1.07815 37.2079 1.49656 37.3786 1.93229 37.3786C2.36802 37.3786 2.78643 37.2079 3.09794 36.9032C3.40945 36.5985 3.58929 36.184 3.59896 35.7484C3.59896 28.0983 9.7672 21.9333 17.4173 21.9333C20.0877 21.9333 22.5666 22.6946 24.6764 24.0005C24.8632 24.1165 25.0711 24.1944 25.2881 24.23C25.5052 24.2656 25.7271 24.258 25.9411 24.2077C26.1552 24.1574 26.3573 24.0653 26.5357 23.9368C26.7142 23.8083 26.8656 23.646 26.9812 23.4589C27.0968 23.2718 27.1743 23.0637 27.2094 22.8466C27.2444 22.6295 27.2363 22.4076 27.1855 22.1936C27.1347 21.9797 27.0422 21.7778 26.9133 21.5996C26.7844 21.4214 26.6216 21.2705 26.4342 21.1553C25.4835 20.567 24.4515 20.1064 23.3874 19.7101C26.0089 17.7831 27.7266 14.6905 27.7266 11.2042C27.7266 5.38494 22.9632 0.621582 17.1439 0.621582ZM17.1439 3.95804C21.1617 3.95804 24.3932 7.18639 24.3932 11.2042C24.3932 15.222 21.1617 18.4373 17.1439 18.4373C13.1261 18.4373 9.91081 15.222 9.91081 11.2042C9.91081 7.18639 13.1261 3.95804 17.1439 3.95804ZM34.0124 23.9614C33.7415 23.9692 33.4766 24.0429 33.2406 24.1762C33.0046 24.3095 32.8047 24.4983 32.6582 24.7263L26.9128 33.3364L23.3092 30.9242C23.1265 30.8014 22.9213 30.7158 22.7055 30.6724C22.4896 30.629 22.2673 30.6286 22.0513 30.6713C21.8353 30.7139 21.6298 30.7989 21.4467 30.9212C21.2635 31.0434 21.1063 31.2006 20.984 31.3837C20.8617 31.5668 20.7768 31.7721 20.734 31.9881C20.6913 32.2041 20.6916 32.4266 20.7349 32.6425C20.7783 32.8583 20.8638 33.0635 20.9866 33.2463C21.1094 33.429 21.267 33.5857 21.4505 33.7074L26.4603 37.0408C26.6428 37.1619 26.8474 37.2459 27.0623 37.2878C27.2773 37.3298 27.4984 37.3289 27.713 37.2854C27.9276 37.2418 28.1316 37.1565 28.3132 37.0341C28.4948 36.9117 28.6506 36.7548 28.7715 36.5722L35.4414 26.5689C35.6154 26.3148 35.7155 26.0174 35.7307 25.7098C35.7459 25.4022 35.6756 25.0964 35.5276 24.8263C35.3796 24.5562 35.1597 24.3325 34.8922 24.1798C34.6247 24.0271 34.3202 23.9515 34.0124 23.9614Z" fill="#8490A4"/>
</svg>
