<svg width="45" height="25" viewBox="0 0 45 25" fill="none" xmlns="http://www.w3.org/2000/svg">
<path d="M17.1259 4.722H6.34793L5.83793 12.236H6.10993C6.3366 11.6693 6.58593 11.1593 6.85793 10.706C7.1526 10.23 7.4926 9.83333 7.87793 9.516C8.26326 9.176 8.72793 8.91533 9.27193 8.734C9.81593 8.55267 10.4619 8.462 11.2099 8.462C12.2299 8.462 13.1819 8.632 14.0659 8.972C14.9499 9.312 15.7206 9.81067 16.3779 10.468C17.0353 11.1027 17.5566 11.896 17.9419 12.848C18.3273 13.7773 18.5199 14.8313 18.5199 16.01C18.5199 17.2113 18.3159 18.3333 17.9079 19.376C17.5226 20.396 16.9333 21.28 16.1399 22.028C15.3693 22.776 14.4173 23.3653 13.2839 23.796C12.1506 24.204 10.8586 24.408 9.40793 24.408C8.25193 24.408 7.23193 24.2833 6.34793 24.034C5.46393 23.7847 4.68193 23.456 4.00193 23.048C3.32193 22.6173 2.7326 22.13 2.23393 21.586C1.73526 21.042 1.3046 20.464 0.94193 19.852L4.64793 16.928C5.16926 17.8573 5.7926 18.6507 6.51793 19.308C7.24326 19.9427 8.21793 20.26 9.44193 20.26C10.6659 20.26 11.5839 19.9087 12.1959 19.206C12.8306 18.5033 13.1479 17.574 13.1479 16.418V16.146C13.1479 15.058 12.8306 14.1967 12.1959 13.562C11.5613 12.9273 10.6886 12.61 9.57793 12.61C8.6486 12.61 7.87793 12.8027 7.26593 13.188C6.6766 13.5507 6.22326 13.9133 5.90593 14.276L1.72393 13.698L2.60793 0.268H17.1259V4.722ZM40.1306 8.428H40.0286L38.2946 11.896L33.6706 20.294L29.1486 11.93L27.3466 8.19H27.2446V24H22.3826V0.268H27.8566L33.6706 11.386H33.7386L39.4846 0.268H44.9926V24H40.1306V8.428Z" fill="#8490A4"/>
</svg>
