<svg width="24" height="24" viewBox="0 0 24 24" fill="none" xmlns="http://www.w3.org/2000/svg">
<g clip-path="url(#clip0_247_90)">
<path d="M6.70937 6.89906C8.09374 5.82093 9.86874 4.99999 12 4.99999C14.525 4.99999 16.5469 6.15124 18.0187 7.51874C19.4812 8.87499 20.4594 10.4719 20.9219 11.6156C21.025 11.8625 21.025 12.1375 20.9219 12.3844C20.5031 13.3937 19.6625 14.8156 18.425 16.0844L21.7125 18.6594C22.0375 18.9156 22.0969 19.3875 21.8406 19.7125C21.5844 20.0375 21.1125 20.0969 20.7875 19.8406L2.28737 5.34031C1.96137 5.08468 1.90421 4.61343 2.15974 4.28737C2.41531 3.96137 2.88656 3.90421 3.21281 4.15974L6.70937 6.89906ZM7.93124 7.85937L9.36874 8.98437C10.0719 8.37187 10.9937 7.99999 12 7.99999C14.2094 7.99999 16 9.79062 16 12C16 12.6625 15.8406 13.2844 15.5562 13.8344L17.2375 15.1531C18.2844 14.0875 19.0594 12.8469 19.4562 12C19.0031 11.0344 18.2 9.73437 16.9969 8.61562C15.7125 7.42499 14.0375 6.47187 12 6.47187C10.4219 6.47187 9.03437 7.05406 7.93124 7.85937ZM14.3406 12.8812C14.4437 12.6062 14.5 12.3094 14.5 11.9719C14.5 10.6187 13.3812 9.47187 12 9.47187C11.9781 9.47187 11.9594 9.49999 11.9094 9.49999C11.9781 9.65937 12 9.82812 12 9.97187C12 10.3187 11.925 10.6187 11.7937 10.8844L14.3406 12.8812ZM14.6344 16.9531L15.9437 17.9844C14.8094 18.5969 13.4937 19 12 19C9.47499 19 7.45312 17.85 5.98124 16.4812C4.51937 15.0969 3.54187 13.5 3.07687 12.3844C2.97437 12.1375 2.97437 11.8625 3.07687 11.6156C3.37499 10.9 3.88406 9.97499 4.59656 9.04687L5.77499 9.97499C5.19062 10.7031 4.80499 11.425 4.54531 11.9719C4.96937 12.9375 5.79999 14.2656 7.00312 15.3844C8.28749 16.575 9.96249 17.5 12 17.5C12.9594 17.5 13.8375 17.2937 14.6344 16.9531ZM7.99999 11.9719C7.99999 11.9094 8.00312 11.8219 8.00937 11.7344L9.76249 13.1156C10.0906 13.775 10.7031 14.2687 11.4375 14.4094L13.1937 15.8187C12.8156 15.9094 12.4156 16 11.9719 16C9.79062 16 7.97187 14.2094 7.97187 11.9719H7.99999Z" fill="black"/>
</g>
<defs>
<clipPath id="clip0_247_90">
<rect width="20" height="16" fill="white" transform="translate(2 4)"/>
</clipPath>
</defs>
</svg>
