<svg width="24" height="24" viewBox="0 0 24 24" fill="none" xmlns="http://www.w3.org/2000/svg">
<g clip-path="url(#clip0_247_91)">
<path d="M7.55556 11.8889C7.55556 9.434 9.54514 7.44442 12 7.44442C14.4549 7.44442 16.4444 9.434 16.4444 11.8889C16.4444 14.3437 14.4549 16.3333 12 16.3333C9.54514 16.3333 7.55556 14.3437 7.55556 11.8889ZM12 14.6666C13.5347 14.6666 14.7778 13.4236 14.7778 11.8889C14.7778 10.3541 13.5347 9.11108 12 9.11108C11.9757 9.11108 11.9549 9.11108 11.8993 9.11108C11.9757 9.28817 12 9.47567 12 9.66664C12 10.8923 11.0035 11.8889 9.77778 11.8889C9.58681 11.8889 9.39931 11.8646 9.22223 11.7882C9.22223 11.8437 9.22223 11.8646 9.22223 11.8576C9.22223 13.4236 10.4653 14.6666 12 14.6666ZM5.3132 6.9097C6.94792 5.39025 9.19445 4.11108 12 4.11108C14.8056 4.11108 17.0521 5.39025 18.6875 6.9097C20.3125 8.41664 21.3993 10.1909 21.9132 11.4618C22.0278 11.7361 22.0278 12.0416 21.9132 12.3159C21.3993 13.5555 20.3125 15.3298 18.6875 16.868C17.0521 18.3889 14.8056 19.6666 12 19.6666C9.19445 19.6666 6.94792 18.3889 5.3132 16.868C3.6882 15.3298 2.60209 13.5555 2.08546 12.3159C1.97151 12.0416 1.97151 11.7361 2.08546 11.4618C2.60209 10.1909 3.6882 8.41664 5.3132 6.9097ZM12 5.77775C9.73612 5.77775 7.875 6.80553 6.44792 8.12845C5.11112 9.3715 4.1882 10.8159 3.71667 11.8889C4.1882 12.9305 5.11112 14.4062 6.44792 15.6493C7.875 16.9722 9.73612 18 12 18C14.2639 18 16.125 16.9722 17.5521 15.6493C18.8889 14.4062 19.7813 12.9305 20.2847 11.8889C19.7813 10.8159 18.8889 9.3715 17.5521 8.12845C16.125 6.80553 14.2639 5.77775 12 5.77775Z" fill="black"/>
</g>
<defs>
<clipPath id="clip0_247_91">
<rect width="20" height="17.7778" fill="white" transform="translate(2 3)"/>
</clipPath>
</defs>
</svg>
