<svg width="1151" height="1381" viewBox="0 0 1151 1381" fill="none" xmlns="http://www.w3.org/2000/svg">
<g opacity="0.72" clip-path="url(#clip0_364_1202)">
<path d="M1100.99 360.058L952.227 750.871L891.646 644.876L1100.99 360.058Z" stroke="#B8B8B8" stroke-miterlimit="10"/>
<path d="M891.645 644.876L722.158 741.486L952.226 750.871" stroke="#B8B8B8" stroke-miterlimit="10"/>
<path d="M732.439 616.934L478.241 733.293L722.159 741.487L732.439 616.934Z" stroke="#B8B8B8" stroke-miterlimit="10"/>
<path d="M891.454 406.273L891.516 643.517L732.44 616.933L891.454 406.273Z" stroke="#B8B8B8" stroke-miterlimit="10"/>
<path d="M462.758 468.042L732.519 616.945L291.21 641.716L462.758 468.042Z" stroke="#B8B8B8" stroke-miterlimit="10"/>
<path d="M631.566 1053.26L478.243 733.293L722.161 741.486L631.566 1053.26Z" stroke="#B8B8B8" stroke-miterlimit="10"/>
<path d="M291.132 641.705L215.8 878.619L478.243 733.293L291.132 641.705Z" stroke="#B8B8B8" stroke-miterlimit="10"/>
<path d="M1129.81 651.96L1227.42 784.18L954.923 751.671" stroke="#B8B8B8" stroke-miterlimit="10"/>
<path d="M631.565 1053.26L755.136 852.815L722.16 741.487" stroke="#B8B8B8" stroke-miterlimit="10"/>
<path d="M215.8 878.619L323.109 1044.33L478.243 733.293" stroke="#B8B8B8" stroke-miterlimit="10"/>
<path d="M291.132 641.705L136.786 631.64L462.679 468.03L676.344 387.427L732.441 616.934" stroke="#B8B8B8" stroke-miterlimit="10"/>
<path d="M1100.99 360.058L1128.98 652.102L954.352 749.639" stroke="#B8B8B8" stroke-miterlimit="10"/>
<path d="M1128.98 652.103L1260.31 537.348L1227.42 784.18L949.545 1063.59L953.067 753.269" stroke="#B8B8B8" stroke-miterlimit="10"/>
<path d="M214.613 877.332L100.591 751.753L288.946 642.631" stroke="#B8B8B8" stroke-miterlimit="10"/>
<path d="M1099.36 359.823L892.595 404.888" stroke="#B8B8B8" stroke-miterlimit="10"/>
<path d="M938.586 753.591C937.175 745.693 942.418 738.201 950.315 736.79C958.213 735.38 965.704 740.622 967.115 748.52C968.526 756.417 963.284 763.909 955.386 765.32C947.489 766.731 939.997 761.488 938.586 753.591Z" fill="#3031FD"/>
<path d="M461.961 734.67C460.599 727.044 465.661 719.811 473.286 718.449C480.911 717.086 488.145 722.148 489.507 729.773C490.869 737.399 485.807 744.632 478.182 745.994C470.557 747.357 463.324 742.295 461.961 734.67Z" fill="#3031FD"/>
<path d="M712.62 743.208C711.6 737.497 715.42 732.064 721.131 731.045C726.842 730.025 732.274 733.845 733.294 739.556C734.314 745.267 730.494 750.7 724.783 751.719C719.072 752.739 713.639 748.919 712.62 743.208Z" fill="#3031FD"/>
<path d="M456.492 469.123C455.881 465.697 458.173 462.438 461.598 461.826C465.024 461.214 468.282 463.505 468.893 466.931C469.505 470.356 467.213 473.616 463.787 474.228C460.362 474.84 457.103 472.548 456.492 469.123Z" fill="#3031FD"/>
<path d="M883.952 646.345C883.2 641.997 886.062 637.875 890.434 637.098C894.806 636.32 898.916 639.221 899.702 643.591C900.454 647.939 897.592 652.061 893.219 652.839C888.847 653.616 884.738 650.715 883.952 646.345Z" fill="#3031FD"/>
<path d="M1092.19 363.896C1091.53 360.09 1094.04 356.479 1097.86 355.795C1101.69 355.111 1105.28 357.648 1105.96 361.472C1106.65 365.297 1104.11 368.889 1100.29 369.573C1096.48 370.227 1092.87 367.72 1092.19 363.896Z" fill="#3031FD"/>
<path d="M624.237 1053.29C623.678 1050.03 625.829 1046.93 629.108 1046.34C632.371 1045.78 635.466 1047.93 636.051 1051.21C636.636 1054.49 634.46 1057.57 631.181 1058.16C627.917 1058.72 624.822 1056.57 624.237 1053.29Z" fill="#3031FD"/>
<path d="M747.729 852.784C747.006 848.726 749.756 844.792 753.813 844.069C757.87 843.347 761.805 846.096 762.527 850.153C763.25 854.21 760.501 858.145 756.443 858.868C752.386 859.59 748.451 856.841 747.729 852.784Z" fill="#3031FD"/>
<path d="M670.181 387.896C669.555 384.38 671.938 380.97 675.454 380.344C678.971 379.717 682.381 382.1 683.007 385.616C683.633 389.133 681.25 392.543 677.734 393.169C674.218 393.795 670.808 391.412 670.181 387.896Z" fill="#3031FD"/>
<path d="M135.962 632.033C135.191 627.705 138.124 623.508 142.451 622.737C146.779 621.967 150.976 624.899 151.747 629.227C152.517 633.555 149.585 637.752 145.257 638.522C140.929 639.293 136.732 636.36 135.962 632.033Z" fill="#3031FD"/>
<path d="M1123.72 652.343C1123.14 649.097 1125.34 645.949 1128.59 645.371C1131.84 644.793 1134.98 646.993 1135.56 650.238C1136.14 653.484 1133.94 656.632 1130.69 657.21C1127.45 657.788 1124.3 655.589 1123.72 652.343Z" fill="#3031FD"/>
<path d="M944.599 1061.58C943.888 1057.5 946.605 1053.6 950.683 1052.89C954.762 1052.18 958.665 1054.89 959.376 1058.97C960.087 1063.05 957.37 1066.95 953.292 1067.66C949.213 1068.37 945.31 1065.66 944.599 1061.58Z" fill="#3031FD"/>
<path d="M314.604 1039.26C313.751 1034.37 317.011 1029.68 321.905 1028.83C326.799 1027.98 331.483 1031.24 332.336 1036.13C333.189 1041.03 329.929 1045.71 325.035 1046.56C320.141 1047.42 315.457 1044.16 314.604 1039.26V1039.26Z" fill="#3031FD"/>
<path d="M725.048 618.253C724.346 614.177 727.029 610.313 731.125 609.582C735.221 608.852 739.07 611.569 739.805 615.664C740.539 619.759 737.824 623.604 733.728 624.335C729.631 625.065 725.783 622.348 725.048 618.253Z" fill="#3031FD"/>
<path d="M209.47 879.132C208.729 875.049 211.465 871.151 215.531 870.438C219.613 869.698 223.511 872.433 224.224 876.499C224.964 880.582 222.229 884.479 218.163 885.192C214.08 885.933 210.183 883.197 209.47 879.132Z" fill="#3031FD"/>
<path d="M94.9019 750.357C94.0533 746.45 96.6229 742.823 100.593 742.265C104.58 741.682 108.487 744.401 109.308 748.291C110.157 752.198 107.587 755.825 103.617 756.383C99.6302 756.966 95.7227 754.247 94.9019 750.357Z" fill="#3031FD"/>
<path d="M883.581 407.958C882.831 403.607 885.696 399.481 890.07 398.701C894.444 397.921 898.553 400.822 899.337 405.195C900.087 409.546 897.223 413.672 892.849 414.452C888.496 415.198 884.365 412.331 883.581 407.958Z" fill="#3031FD"/>
<path d="M283.196 642.568C282.447 638.221 285.309 634.099 289.678 633.32C294.047 632.54 298.153 635.439 298.936 639.807C299.72 644.175 296.823 648.276 292.454 649.055C288.085 649.834 283.979 646.936 283.196 642.568Z" fill="#3031FD"/>
</g>
<defs>
<clipPath id="clip0_364_1202">
<rect width="1015" height="997" fill="white" transform="translate(865.09 1380.64) rotate(-148.463)"/>
</clipPath>
</defs>
</svg>
