<svg width="921" height="1182" viewBox="0 0 921 1182" fill="none" xmlns="http://www.w3.org/2000/svg">
<g opacity="0.72" clip-path="url(#clip0_364_1276)">
<path d="M-181.847 510.452L207.652 358.283L169.782 474.347L-181.847 510.452Z" stroke="#B8B8B8" stroke-miterlimit="10"/>
<path d="M169.779 474.346L355.175 535.076L207.65 358.282" stroke="#B8B8B8" stroke-miterlimit="10"/>
<path d="M255.975 611.088L512.884 721.332L355.178 535.075L255.975 611.088Z" stroke="#B8B8B8" stroke-miterlimit="10"/>
<path d="M-6.90585 634.7L168.862 475.357L255.974 611.09L-6.90585 634.7Z" stroke="#B8B8B8" stroke-miterlimit="10"/>
<path d="M326.715 910.91L255.929 611.021L570.602 921.421L326.715 910.91Z" stroke="#B8B8B8" stroke-miterlimit="10"/>
<path d="M647.047 392.869L512.882 721.333L355.176 535.076L647.047 392.869Z" stroke="#B8B8B8" stroke-miterlimit="10"/>
<path d="M570.648 921.489L796.795 818.238L512.883 721.333L570.648 921.489Z" stroke="#B8B8B8" stroke-miterlimit="10"/>
<path d="M15.1157 293.099L47.5551 131.984L206.435 355.749" stroke="#B8B8B8" stroke-miterlimit="10"/>
<path d="M647.045 392.869L415.532 435.886L355.174 535.075" stroke="#B8B8B8" stroke-miterlimit="10"/>
<path d="M796.792 818.237L847.543 627.445L512.881 721.332" stroke="#B8B8B8" stroke-miterlimit="10"/>
<path d="M570.645 921.489L666.822 1042.62L326.758 910.977L123.563 806.762L255.972 611.089" stroke="#B8B8B8" stroke-miterlimit="10"/>
<path d="M-181.848 510.454L15.777 293.618L205.312 357.537" stroke="#B8B8B8" stroke-miterlimit="10"/>
<path d="M15.7772 293.616L-157.444 273.346L47.5552 131.983L441.195 150.294L208.865 356.051" stroke="#B8B8B8" stroke-miterlimit="10"/>
<path d="M796.637 819.978L780.137 988.795L572.8 922.484" stroke="#B8B8B8" stroke-miterlimit="10"/>
<path d="M218.83 366.567C213.924 372.915 204.853 374.061 198.504 369.155C192.156 364.25 191.01 355.179 195.916 348.83C200.821 342.482 209.893 341.336 216.241 346.241C222.589 351.147 223.735 360.218 218.83 366.567Z" fill="#3031FD"/>
<path d="M524.837 732.474C520.101 738.603 511.343 739.709 505.213 734.973C499.083 730.237 497.978 721.478 502.714 715.349C507.45 709.219 516.209 708.113 522.338 712.849C528.468 717.585 529.573 726.344 524.837 732.474Z" fill="#3031FD"/>
<path d="M362.859 540.991C359.312 545.581 352.721 546.398 348.131 542.851C343.541 539.304 342.724 532.713 346.271 528.123C349.818 523.532 356.409 522.715 360.999 526.263C365.589 529.81 366.406 536.401 362.859 540.991Z" fill="#3031FD"/>
<path d="M331.725 914.828C329.597 917.581 325.643 918.072 322.889 915.944C320.136 913.817 319.646 909.863 321.774 907.11C323.902 904.357 327.856 903.867 330.61 905.995C333.363 908.122 333.853 912.075 331.725 914.828Z" fill="#3031FD"/>
<path d="M176.041 479.064C173.323 482.541 168.347 483.188 164.835 480.47C161.323 477.752 160.714 472.758 163.424 469.241C166.142 465.765 171.118 465.118 174.63 467.836C178.141 470.554 178.751 475.548 176.041 479.064Z" fill="#3031FD"/>
<path d="M651.994 398.279C649.95 400.885 646.21 401.372 643.573 399.337C640.965 397.296 640.479 393.56 642.517 390.924C644.555 388.288 648.3 387.831 650.938 389.866C653.546 391.907 654.032 395.643 651.994 398.279Z" fill="#3031FD"/>
<path d="M420.488 441.399C417.967 444.658 413.205 445.263 409.945 442.741C406.686 440.22 406.081 435.458 408.603 432.198C411.124 428.939 415.886 428.334 419.145 430.856C422.405 433.377 423.01 438.139 420.488 441.399Z" fill="#3031FD"/>
<path d="M128.053 811.014C125.867 813.839 121.74 814.363 118.915 812.178C116.09 809.993 115.566 805.866 117.752 803.041C119.937 800.216 124.064 799.692 126.889 801.877C129.714 804.062 130.238 808.189 128.053 811.014Z" fill="#3031FD"/>
<path d="M667.669 1042.97C664.979 1046.45 659.9 1047.09 656.423 1044.4C652.946 1041.71 652.301 1036.63 654.991 1033.16C657.681 1029.68 662.76 1029.04 666.237 1031.73C669.714 1034.42 670.359 1039.49 667.669 1042.97Z" fill="#3031FD"/>
<path d="M19.4889 297.353C17.4717 299.961 13.6624 300.445 11.0547 298.428C8.4469 296.41 7.96316 292.601 9.98042 289.993C11.9977 287.385 15.8071 286.902 18.4148 288.919C21.0226 290.936 21.5062 294.746 19.4889 297.353Z" fill="#3031FD"/>
<path d="M51.7265 138.667C49.6905 141.279 45.9173 141.766 43.3052 139.73C40.693 137.694 40.2069 133.92 42.2429 131.308C44.2789 128.696 48.0521 128.21 50.6643 130.246C53.2765 132.282 53.7625 136.055 51.7265 138.667Z" fill="#3031FD"/>
<path d="M443.023 155.312C440.478 158.577 435.762 159.184 432.497 156.639C429.232 154.094 428.624 149.378 431.169 146.113C433.714 142.848 438.43 142.24 441.696 144.785C444.961 147.33 445.568 152.046 443.023 155.312Z" fill="#3031FD"/>
<path d="M849.5 637.156C846.446 641.074 840.786 641.803 836.868 638.749C832.95 635.695 832.221 630.035 835.275 626.117C838.329 622.199 843.988 621.47 847.907 624.524C851.825 627.578 852.554 633.237 849.5 637.156V637.156Z" fill="#3031FD"/>
<path d="M261.917 615.682C259.368 618.938 254.703 619.545 251.412 617C248.12 614.455 247.549 609.778 250.091 606.484C252.632 603.19 257.304 602.621 260.596 605.166C263.888 607.711 264.458 612.388 261.917 615.682Z" fill="#3031FD"/>
<path d="M801.427 822.584C798.899 825.874 794.174 826.464 790.916 823.93C787.625 821.402 787.036 816.677 789.57 813.419C792.098 810.128 796.823 809.538 800.081 812.073C803.372 814.601 803.961 819.326 801.427 822.584Z" fill="#3031FD"/>
<path d="M782.924 993.949C780.599 997.201 776.185 997.732 773.106 995.165C769.997 992.602 769.388 987.881 771.72 984.661C774.045 981.409 778.459 980.877 781.538 983.445C784.647 986.007 785.256 990.729 782.924 993.949Z" fill="#3031FD"/>
<path d="M-0.367991 639.402C-3.08907 642.879 -8.0702 643.526 -11.585 640.809C-15.0998 638.092 -15.709 633.098 -12.9954 629.581C-10.2743 626.104 -5.29304 625.456 -1.77827 628.173C1.69677 630.898 2.34561 635.884 -0.367991 639.402Z" fill="#3031FD"/>
<path d="M576.615 926.789C573.897 930.263 568.921 930.91 565.41 928.195C561.898 925.481 561.29 920.492 564.001 916.979C566.712 913.465 571.695 912.858 575.206 915.572C578.718 918.287 579.326 923.276 576.615 926.789Z" fill="#3031FD"/>
</g>
<defs>
<clipPath id="clip0_364_1276">
<rect width="1015" height="997" fill="white" transform="translate(732.852) rotate(79.3575)"/>
</clipPath>
</defs>
</svg>
