<svg width="1253" height="1316" viewBox="0 0 1253 1316" fill="none" xmlns="http://www.w3.org/2000/svg">
<g opacity="0.72" clip-path="url(#clip0_364_1313)">
<path d="M1228.01 568.309L794.363 398.892L836.526 528.111L1228.01 568.309Z" stroke="#B8B8B8" stroke-miterlimit="10"/>
<path d="M836.527 528.111L630.118 595.723L794.364 398.892" stroke="#B8B8B8" stroke-miterlimit="10"/>
<path d="M740.566 680.352L454.538 803.091L630.119 595.723L740.566 680.352Z" stroke="#B8B8B8" stroke-miterlimit="10"/>
<path d="M1033.24 706.64L837.55 529.236L740.565 680.353L1033.24 706.64Z" stroke="#B8B8B8" stroke-miterlimit="10"/>
<path d="M661.806 1014.16L740.616 680.277L390.276 1025.86L661.806 1014.16Z" stroke="#B8B8B8" stroke-miterlimit="10"/>
<path d="M305.168 437.399L454.54 803.092L630.121 595.724L305.168 437.399Z" stroke="#B8B8B8" stroke-miterlimit="10"/>
<path d="M390.225 1025.93L138.446 910.98L454.537 803.092L390.225 1025.93Z" stroke="#B8B8B8" stroke-miterlimit="10"/>
<path d="M1008.72 326.32L972.607 146.943L795.718 396.071" stroke="#B8B8B8" stroke-miterlimit="10"/>
<path d="M305.167 437.398L562.921 485.292L630.121 595.723" stroke="#B8B8B8" stroke-miterlimit="10"/>
<path d="M138.444 910.98L81.9414 698.563L454.536 803.092" stroke="#B8B8B8" stroke-miterlimit="10"/>
<path d="M390.227 1025.93L283.149 1160.8L661.758 1014.23L887.984 898.204L740.567 680.352" stroke="#B8B8B8" stroke-miterlimit="10"/>
<path d="M1228.01 568.311L1007.99 326.898L796.969 398.062" stroke="#B8B8B8" stroke-miterlimit="10"/>
<path d="M1007.99 326.896L1200.84 304.329L972.609 146.943L534.352 167.33L793.015 396.407" stroke="#B8B8B8" stroke-miterlimit="10"/>
<path d="M138.625 912.918L156.995 1100.87L387.832 1027.04" stroke="#B8B8B8" stroke-miterlimit="10"/>
<path d="M1226.99 569.827L1035.24 706.732" stroke="#B8B8B8" stroke-miterlimit="10"/>
<path d="M781.922 408.115C787.383 415.183 797.483 416.458 804.551 410.997C811.619 405.536 812.894 395.436 807.433 388.368C801.972 381.3 791.872 380.025 784.804 385.486C777.736 390.947 776.461 401.047 781.922 408.115Z" fill="#3031FD"/>
<path d="M441.23 815.495C446.503 822.32 456.254 823.551 463.079 818.278C469.903 813.005 471.134 803.254 465.861 796.429C460.589 789.605 450.837 788.374 444.012 793.647C437.188 798.92 435.957 808.671 441.23 815.495Z" fill="#3031FD"/>
<path d="M621.565 602.309C625.514 607.419 632.852 608.329 637.962 604.38C643.073 600.43 643.982 593.092 640.033 587.982C636.084 582.872 628.746 581.962 623.635 585.911C618.525 589.861 617.615 597.199 621.565 602.309Z" fill="#3031FD"/>
<path d="M656.226 1018.52C658.595 1021.58 662.998 1022.13 666.063 1019.76C669.129 1017.39 669.674 1012.99 667.305 1009.93C664.936 1006.86 660.533 1006.32 657.468 1008.68C654.402 1011.05 653.857 1015.45 656.226 1018.52Z" fill="#3031FD"/>
<path d="M829.558 533.364C832.584 537.234 838.124 537.954 842.034 534.928C845.944 531.902 846.622 526.343 843.605 522.428C840.579 518.557 835.039 517.837 831.129 520.863C827.219 523.889 826.54 529.448 829.558 533.364Z" fill="#3031FD"/>
<path d="M1218.26 572.706C1220.91 576.091 1225.76 576.722 1229.19 574.078C1232.61 571.434 1233.2 566.574 1230.56 563.151C1227.92 559.728 1223.06 559.135 1219.63 561.779C1216.25 564.43 1215.62 569.283 1218.26 572.706Z" fill="#3031FD"/>
<path d="M299.66 443.422C301.936 446.324 306.099 446.866 309.036 444.6C311.939 442.328 312.48 438.168 310.211 435.234C307.942 432.299 303.772 431.79 300.836 434.056C297.932 436.328 297.391 440.487 299.66 443.422Z" fill="#3031FD"/>
<path d="M557.407 491.429C560.215 495.058 565.516 495.731 569.145 492.924C572.774 490.116 573.448 484.815 570.64 481.186C567.833 477.556 562.531 476.883 558.902 479.691C555.273 482.498 554.6 487.799 557.407 491.429Z" fill="#3031FD"/>
<path d="M882.987 902.938C885.42 906.083 890.014 906.667 893.16 904.234C896.305 901.801 896.888 897.206 894.455 894.061C892.022 890.916 887.428 890.332 884.282 892.765C881.137 895.198 880.554 899.793 882.987 902.938Z" fill="#3031FD"/>
<path d="M282.207 1161.19C285.202 1165.06 290.857 1165.78 294.728 1162.78C298.599 1159.79 299.317 1154.13 296.322 1150.26C293.328 1146.39 287.673 1145.67 283.802 1148.67C279.931 1151.66 279.213 1157.32 282.207 1161.19Z" fill="#3031FD"/>
<path d="M1003.85 331.057C1006.1 333.96 1010.34 334.499 1013.25 332.253C1016.15 330.007 1016.69 325.766 1014.44 322.862C1012.2 319.959 1007.95 319.42 1005.05 321.666C1002.15 323.912 1001.61 328.153 1003.85 331.057Z" fill="#3031FD"/>
<path d="M967.966 154.385C970.233 157.293 974.434 157.834 977.342 155.567C980.25 153.301 980.792 149.1 978.525 146.191C976.258 143.283 972.057 142.742 969.149 145.009C966.241 147.276 965.7 151.476 967.966 154.385Z" fill="#3031FD"/>
<path d="M532.315 172.915C535.149 176.55 540.4 177.227 544.035 174.394C547.67 171.56 548.347 166.309 545.513 162.674C542.68 159.038 537.429 158.362 533.794 161.195C530.158 164.029 529.482 169.28 532.315 172.915Z" fill="#3031FD"/>
<path d="M1190.94 308.15C1193.58 311.543 1198.49 312.174 1201.88 309.53C1205.27 306.885 1205.9 301.984 1203.26 298.591C1200.61 295.198 1195.71 294.567 1192.32 297.211C1188.93 299.856 1188.3 304.757 1190.94 308.15Z" fill="#3031FD"/>
<path d="M79.7697 709.373C83.1699 713.736 89.4712 714.547 93.8336 711.147C98.1959 707.747 99.0077 701.446 95.6075 697.084C92.2074 692.721 85.906 691.91 81.5437 695.31C77.1814 698.71 76.3696 705.011 79.7697 709.373Z" fill="#3031FD"/>
<path d="M733.951 685.466C736.788 689.092 741.982 689.767 745.647 686.933C749.311 684.1 749.947 678.893 747.117 675.226C744.288 671.558 739.086 670.925 735.421 673.758C731.756 676.592 731.121 681.798 733.951 685.466Z" fill="#3031FD"/>
<path d="M133.29 915.819C136.105 919.483 141.365 920.139 144.993 917.318C148.656 914.503 149.313 909.243 146.492 905.615C143.677 901.952 138.416 901.295 134.789 904.117C131.126 906.931 130.469 912.192 133.29 915.819Z" fill="#3031FD"/>
<path d="M153.888 1106.61C156.477 1110.23 161.391 1110.82 164.819 1107.96C168.28 1105.11 168.958 1099.85 166.362 1096.27C163.773 1092.65 158.86 1092.05 155.431 1094.91C151.97 1097.77 151.292 1103.02 153.888 1106.61Z" fill="#3031FD"/>
<path d="M1025.97 711.874C1028.99 715.745 1034.54 716.466 1038.45 713.441C1042.37 710.415 1043.04 704.856 1040.02 700.94C1036.99 697.069 1031.45 696.348 1027.54 699.373C1023.67 702.407 1022.94 707.958 1025.97 711.874Z" fill="#3031FD"/>
<path d="M383.581 1031.84C386.607 1035.7 392.147 1036.42 396.057 1033.4C399.966 1030.38 400.643 1024.83 397.625 1020.91C394.607 1017 389.059 1016.33 385.149 1019.35C381.24 1022.37 380.563 1027.92 383.581 1031.84Z" fill="#3031FD"/>
</g>
<defs>
<clipPath id="clip0_364_1313">
<rect width="1130.04" height="1110" fill="white" transform="matrix(-0.18468 0.982799 0.982799 0.18468 209.637 0)"/>
</clipPath>
</defs>
</svg>
